<?xml version="1.0" encoding="UTF-8" standalone="no"?>
<!-- Created with Inkscape (http://www.inkscape.org/) -->

<svg
   version="1.1"
   id="svg1"
   width="814"
   height="1031"
   viewBox="0 0 814 814"
   sodipodi:docname="EduSkills.svg"
   inkscape:version="1.4.3 (0d15f75042, 2025-12-25)"
   xmlns:inkscape="http://www.inkscape.org/namespaces/inkscape"
   xmlns:sodipodi="http://sodipodi.sourceforge.net/DTD/sodipodi-0.dtd"
   xmlns="http://www.w3.org/2000/svg"
   xmlns:svg="http://www.w3.org/2000/svg">
  <defs
     id="defs1" />
  <sodipodi:namedview
     id="namedview1"
     pagecolor="#ffffff"
     bordercolor="#666666"
     borderopacity="1.0"
     inkscape:showpageshadow="2"
     inkscape:pageopacity="0.0"
     inkscape:pagecheckerboard="0"
     inkscape:deskcolor="#d1d1d1"
     showgrid="false"
     inkscape:zoom="0.76624636"
     inkscape:cx="407.17975"
     inkscape:cy="515.5"
     inkscape:window-width="1896"
     inkscape:window-height="1001"
     inkscape:window-x="0"
     inkscape:window-y="0"
     inkscape:window-maximized="0"
     inkscape:current-layer="g1" />

  <rect width="100%" height="100%" fill="#0e321a" />

  <g
     inkscape:groupmode="layer"
     inkscape:label="Image"
     id="g1">
    <path
       style="fill: #bda886"
       transform="translate(0, -80)"
       d="m 159.41867,792.87409 c -1.69474,-0.46412 -3.94474,-1.79787 -5,-2.96388 -1.87252,-2.06902 -1.925,-5.99565 -2.18173,-163.26511 -0.19591,-120.00451 0.0315,-161.85922 0.89085,-163.94226 C 155.19475,457.69243 158.13199,457 177.31883,457 h 17.41816 l 0.48555,-7.56604 c 0.68868,-10.73103 2.09614,-12.33304 13.36332,-15.21047 4.90278,-1.25209 14.31414,-3.157 20.91414,-4.23314 12.34861,-2.01346 43.73025,-4.21339 49.66104,-3.48135 1.83643,0.22667 7.95146,0.63604 13.58896,0.90973 l 10.25,0.4976 V 423.95817 420 h -18.54545 c -18.30048,0 -18.57752,-0.0321 -20.97281,-2.42735 l -2.42735,-2.42736 -0.0326,-43.74472 c -0.0179,-24.0596 -0.14266,-43.82382 -0.27719,-43.92049 -0.13452,-0.0967 -24.18929,-10.20165 -53.45504,-22.45549 -29.26575,-12.25384 -54.01575,-23.16955 -55,-24.25714 -2.59287,-2.86508 -2.40948,-10.09196 0.32548,-12.82692 2.65447,-2.65447 248.25663,-88.05387 253.38497,-88.10559 2.03958,-0.0206 25.19772,7.54164 55.5,18.12332 28.6,9.98725 63.025,21.91468 76.5,26.50541 59.74877,20.35549 117.59266,40.69463 119.74498,42.10489 4.58124,3.00175 5.37285,11.20485 1.42597,14.77673 -0.98446,0.89093 -24.26316,11.05621 -51.73044,22.58951 L 557.5,324.90445 l -0.26004,45.4831 -0.26005,45.48309 -2.44409,1.92253 c -2.25109,1.7707 -4.87603,1.96823 -33.23996,2.50129 -33.71152,0.63356 -44.00935,1.53354 -61.2191,5.35022 -14.76309,3.27407 -24.81462,7.02807 -39.28311,14.67126 L 409.0873,446.5 396.29365,439.83773 c -7.03651,-3.66425 -16.62774,-8.00259 -21.31384,-9.64076 -13.56978,-4.74374 -38.73055,-9.16562 -52.2846,-9.18877 l -4.80479,-0.008 0.30479,4.59377 0.30479,4.59376 13,3.29207 c 15.18395,3.84513 23.61804,6.9205 35.72639,13.02712 12.13518,6.12016 23.98613,14.19163 32.91001,22.41443 l 7.53967,6.94735 7.91196,-6.96438 c 34.91385,-30.73231 82.91653,-44.87388 141.89742,-41.80291 21.5185,1.1204 50.47203,5.91217 57.73491,9.55503 3.91941,1.96588 4.77964,4.26563 4.77964,12.77802 V 457 h 18.04966 c 20.22008,0 22.94266,0.6706 24.84192,6.11884 C 663.68497,465.39475 664,511.85097 664,626.5725 v 160.27405 l -2.48904,2.95805 c -4.06744,4.83388 -6.58112,4.67166 -20.01096,-1.29135 -41.65239,-18.49417 -86.79681,-27.53924 -137.22156,-27.49349 -29.54766,0.0268 -54.56876,2.67446 -80.66283,8.53548 -13.55425,3.04444 -17.56449,3.05005 -31.21413,0.0437 C 320.03761,753.66058 239.5436,760.36216 177,787.53231 c -14.5139,6.30512 -14.3005,6.24028 -17.58133,5.34178 z M 199,758.30766 c 20.84136,-6.80012 48.72049,-12.66436 73.5,-15.46038 12.20127,-1.37674 54.71591,-1.75381 69.5,-0.6164 l 9.5,0.73087 -8,-2.46597 c -9.79703,-3.01991 -30.64288,-7.05157 -43.71059,-8.45379 -20.14326,-2.16146 -59.43938,-1.05113 -84.58732,2.39005 -10.9604,1.49979 -13.3039,1.19342 -16.67763,-2.1803 L 196,729.72727 V 603.36364 477 h -12 -12 v 145.47485 145.47484 l 8.25,-3.10804 c 4.5375,-1.70943 12.975,-4.64972 18.75,-6.53399 z M 644,622.5 V 477 H 632.5 621 v 124.53212 c 0,134.23533 0.17468,129.69848 -5.10246,132.52272 -2.36072,1.26341 -11.25876,0.89321 -25.39754,-1.05665 -12.55951,-1.73207 -60.37018,-2.40913 -73.7849,-1.04488 -13.48753,1.37165 -36.89551,5.94705 -46.2151,9.03335 l -6,1.98697 5.5,-0.50087 c 14.88639,-1.35567 48.89855,-1.66199 62.17143,-0.55992 36.02641,2.99133 71.14992,10.64942 100.82857,21.98398 5.775,2.20552 10.6125,4.031 10.75,4.05661 C 643.8875,767.97904 644,702.525 644,622.5 Z M 398,618.63782 V 495.27564 l -8.25,-7.91328 C 374.36282,472.60321 353.68916,461.02181 331.17003,454.54582 324.38854,452.59562 318.65104,451 318.42003,451 c -0.23102,0 -0.42472,7.3125 -0.43046,16.25 l -0.0104,16.25 13.24179,32.79245 c 17.65181,43.71358 19.1893,40.87788 -21.94482,40.47451 -26.51821,-0.26004 -27.28073,-0.32384 -29.41667,-2.4614 -1.24177,-1.24272 -2.17867,-3.41122 -2.16025,-5 0.0179,-1.54306 5.71789,-16.80261 12.66667,-33.91011 L 303,484.29089 v -17.99871 -17.99871 l -7.65088,-0.64673 c -23.04331,-1.94788 -53.80513,0.0113 -77.59912,4.94228 l -2.75,0.56989 v 130.55848 130.55847 l 7.3104,-0.66245 c 50.14956,-4.54443 86.02992,-2.7779 120.83215,5.94904 17.19499,4.31178 40.71805,13.78099 50.35745,20.27139 1.65,1.11098 3.3375,2.05286 3.75,2.09306 0.4125,0.0402 0.75,-55.43988 0.75,-123.28908 z m 53.5,107.45519 c 26.76196,-9.72132 60.56386,-15.11028 94.5,-15.06591 14.12813,0.0185 22.69613,0.48617 46.75,2.55194 l 8.25,0.70851 V 583.78062 453.27369 l -8.25,-1.58404 c -19.39294,-3.72354 -24.6268,-4.1559 -50.25,-4.15108 -22.58287,0.004 -27.51142,0.29301 -37.5,2.19715 -35.15251,6.70119 -65.17136,21.72738 -83.22016,41.65655 L 418.05968,495.5 418.02984,618.68149 418,741.86298 l 12.25,-6.25035 c 6.7375,-3.4377 16.3,-7.72153 21.25,-9.51962 z M 325,541.45489 c 0,-0.92061 -14.26673,-35.52368 -14.52526,-35.23013 -1.04061,1.18155 -14.10069,34.81596 -13.6816,35.23505 0.70908,0.70907 28.20686,0.70427 28.20686,-0.005 z m 94.50939,-117.45967 c 24.83959,-12.6466 49.93396,-17.53643 95.74061,-18.65579 L 542,404.68575 v -21.11627 -21.11627 l -15.75,-5.1871 c -39.77321,-13.09891 -67.53489,-18.4414 -103.56745,-19.93064 -13.43475,-0.55527 -16.18389,-0.94198 -18.25,-2.56719 -3.17924,-2.50079 -3.31752,-7.88331 -0.28056,-10.92027 2.09013,-2.09013 2.64347,-2.13319 19.25,-1.49811 36.30822,1.38853 70.65059,7.9736 107.34801,20.58374 l 11.25,3.86577 v -11.24674 -11.24673 l -16.75,-5.59339 C 497.67431,309.5041 478.31248,304.9107 452,301.33471 c -10.68164,-1.45168 -19.86741,-1.82893 -44,-1.80701 -33.87089,0.0308 -46.20256,1.3024 -75,7.73392 L 318.5,310.5 318.2403,358.25 317.98061,406 h 5.28955 c 23.60837,0 60.92904,9.38936 79.05324,19.88869 2.84713,1.64934 5.66695,3.02412 6.26627,3.05506 0.59932,0.0309 5.51319,-2.1959 10.91972,-4.94853 z M 303,360.15415 V 315.3083 l -13.49647,4.59585 -13.49646,4.59585 -0.004,40.25 L 276,405 H 289.5 303 Z M 302.99888,265.25 C 302.9995,246.4125 302.6625,230.99154 302.25,230.9812 300.63252,230.94066 176,274.41912 176,275.02392 c 0,0.3544 19.80301,8.94756 44.00668,19.0959 l 44.00668,18.45153 19.4922,-6.53568 19.49221,-6.53567 z m 290.93497,28.08851 c 23.17874,-9.71382 41.78834,-18.00921 41.35466,-18.4342 C 634.85483,274.47931 587.025,257.70529 529,237.6287 470.975,217.55211 419.45,199.72032 414.5,198.00249 l -9,-3.12331 -43.4319,15.06041 C 338.18055,218.22282 318.49305,225 318.3181,225 318.14314,225 318,240.75 318,260 c 0,19.25 0.25751,35 0.57224,35 0.31473,0 5.60223,-1.16312 11.75,-2.58471 22.6126,-5.22888 42.2841,-7.53413 69.38458,-8.13099 48.15635,-1.06059 83.48265,4.4151 129.79318,20.11835 10.45,3.54345 19.7404,6.47745 20.64534,6.51999 0.90494,0.0426 20.60977,-7.87031 43.78851,-17.58413 z"
       id="path1"
       sodipodi:nodetypes="ssssscssssscccsscssssssssssscccsssscssccccssscsssscssscsssssssssscsssscccccccssscccssssscsssssscsssscssssscccsscccsssssssscccscsscccssssssssscccsssssscccsssscccsssscccccccccsssscccssssscsssssssss" />
  </g>
</svg>
